ffmpeg started on 2026-03-22 at 17:06:25
Report written to "D:\Convert\FFMetrics\reports\ssim_report-6.txt"
Log level: 32
Command line:
ffmpeg -hide_banner -nostdin -r 24000/1001 -i "F:\\Convert\\files\\[DC] Make Heroine ga Oosugiru - 07_Telegram_HEVC(230).mkv" -r 24000/1001 -i "F:\\Convert\\files\\[DC] Make Heroine ga Oosugiru - 07_Telegram.mp4" -lavfi "[0:v]settb=AVTB,setpts=PTS-STARTPTS,format=pix_fmts=yuv420p10le,fps=24000/1001,scale=1920:1080:flags=lanczos:param0=3:out_range=limited:out_color_matrix=bt709:out_chroma_loc=left,setsar=1/1,setdar=(1920/1080)*(1/1),colorspace=format=yuv420p10:range=tv:primaries=bt709:trc=bt709:space=bt709:fast=0[main];[1:v]settb=AVTB,setpts=PTS-STARTPTS,format=pix_fmts=yuv420p,fps=24000/1001,scale=1920:1080:flags=lanczos:param0=3:out_range=limited:out_color_matrix=bt709:out_chroma_loc=left,setsar=1.000,setdar=1.778,colorspace=format=yuv420p:range=tv:primaries=bt709:trc=bt709:space=bt709:fast=0[ref];[main][ref]ssim=eof_action=endall:stats_file='D\\:/Convert/FFMetrics/logs/ssim_logfile-6.txt'" -f null -
Input #0, matroska,webm, from 'F:\Convert\files\[DC] Make Heroine ga Oosugiru - 07_Telegram_HEVC(230).mkv':
  Metadata:
    COMPATIBLE_BRANDS: isomiso2avc1mp41
    MAJOR_BRAND     : isom
    MINOR_VERSION   : 512
    ENCODER         : Lavf61.7.100
  Duration: 00:24:06.79, start: -0.021000, bitrate: 983 kb/s
  Stream #0:0: Video: hevc (Main 10), yuv420p10le(tv, bt709, progressive), 1920x1080 [SAR 1:1 DAR 16:9], 23.98 fps, 23.98 tbr, 1k tbn (default)
      Metadata:
        HANDLER_NAME    : VideoHandler
        VENDOR_ID       : [0][0][0][0]
        ENCODER         : Lavc61.19.100 libx265
        BPS             : 786726
        DURATION        : 00:24:06.569708333
        NUMBER_OF_FRAMES: 34683
        NUMBER_OF_BYTES : 142256734
        _STATISTICS_WRITING_APP: mkvpropedit v94.0 ('Initiate') 64-bit
        _STATISTICS_WRITING_DATE_UTC: 2026-03-21 13:08:44
        _STATISTICS_TAGS: BPS DURATION NUMBER_OF_FRAMES NUMBER_OF_BYTES
  Stream #0:1: Audio: aac (LC), 48000 Hz, stereo, fltp (default)
      Metadata:
        HANDLER_NAME    : SoundHandler
        VENDOR_ID       : [0][0][0][0]
        ENCODER         : Lavc61.19.100 aac
        BPS             : 193194
        DURATION        : 00:24:06.784000000
        NUMBER_OF_FRAMES: 67819
        NUMBER_OF_BYTES : 34938755
        _STATISTICS_WRITING_APP: mkvpropedit v94.0 ('Initiate') 64-bit
        _STATISTICS_WRITING_DATE_UTC: 2026-03-21 13:08:44
        _STATISTICS_TAGS: BPS DURATION NUMBER_OF_FRAMES NUMBER_OF_BYTES
Input #1, mov,mp4,m4a,3gp,3g2,mj2, from 'F:\Convert\files\[DC] Make Heroine ga Oosugiru - 07_Telegram.mp4':
  Metadata:
    major_brand     : isom
    minor_version   : 512
    compatible_brands: isomiso2avc1mp41
    encoder         : Lavf60.16.100
  Duration: 00:24:06.74, start: 0.000000, bitrate: 3764 kb/s
  Stream #1:0[0x1](und): Video: h264 (High) (avc1 / 0x31637661), yuv420p(tv, bt709, progressive), 1920x1080 [SAR 1:1 DAR 16:9], 3616 kb/s, 23.98 fps, 23.98 tbr, 24k tbn (default)
      Metadata:
        handler_name    : VideoHandler
        vendor_id       : [0][0][0][0]
        encoder         : Lavc60.31.102 h264_qsv
  Stream #1:1[0x2](und): Audio: aac (HE-AACv2) (mp4a / 0x6134706D), 48000 Hz, stereo, fltp, 144 kb/s (default)
      Metadata:
        handler_name    : SoundHandler
        vendor_id       : [0][0][0][0]
Stream mapping:
  Stream #0:0 (hevc) -> settb:default
  Stream #1:0 (h264) -> settb:default
  ssim:default -> Stream #0:0 (wrapped_avframe)
  Stream #0:1 -> #0:1 (aac (native) -> pcm_s16le (native))
Output #0, null, to 'pipe:':
  Metadata:
    COMPATIBLE_BRANDS: isomiso2avc1mp41
    MAJOR_BRAND     : isom
    MINOR_VERSION   : 512
    encoder         : Lavf61.7.100
  Stream #0:0: Video: wrapped_avframe, yuv420p10le(tv, bt709, progressive), 1920x1080 [SAR 1:1 DAR 16:9], q=2-31, 200 kb/s, 23.98 fps, 23.98 tbn
      Metadata:
        encoder         : Lavc61.19.100 wrapped_avframe
  Stream #0:1: Audio: pcm_s16le, 48000 Hz, stereo, s16, 1536 kb/s (default)
      Metadata:
        HANDLER_NAME    : SoundHandler
        VENDOR_ID       : [0][0][0][0]
        _STATISTICS_TAGS: BPS DURATION NUMBER_OF_FRAMES NUMBER_OF_BYTES
        BPS             : 193194
        DURATION        : 00:24:06.784000000
        NUMBER_OF_FRAMES: 67819
        NUMBER_OF_BYTES : 34938755
        _STATISTICS_WRITING_APP: mkvpropedit v94.0 ('Initiate') 64-bit
        _STATISTICS_WRITING_DATE_UTC: 2026-03-21 13:08:44
        encoder         : Lavc61.19.100 pcm_s16le
frame=  137 fps=0.0 q=-0.0 size=N/A time=00:00:05.71 bitrate=N/A speed=11.2x    frame=  321 fps=310 q=-0.0 size=N/A time=00:00:13.38 bitrate=N/A speed=12.9x    frame=  519 fps=335 q=-0.0 size=N/A time=00:00:21.64 bitrate=N/A speed=  14x    frame=  712 fps=346 q=-0.0 size=N/A time=00:00:29.69 bitrate=N/A speed=14.4x    frame=  892 fps=347 q=-0.0 size=N/A time=00:00:37.20 bitrate=N/A speed=14.5x    frame= 1038 fps=335 q=-0.0 size=N/A time=00:00:43.29 bitrate=N/A speed=  14x    frame= 1206 fps=332 q=-0.0 size=N/A time=00:00:50.30 bitrate=N/A speed=13.9x    frame= 1364 fps=330 q=-0.0 size=N/A time=00:00:56.89 bitrate=N/A speed=13.8x    frame= 1523 fps=328 q=-0.0 size=N/A time=00:01:03.52 bitrate=N/A speed=13.7x    frame= 1670 fps=323 q=-0.0 size=N/A time=00:01:09.65 bitrate=N/A speed=13.5x    frame= 1846 fps=325 q=-0.0 size=N/A time=00:01:16.99 bitrate=N/A speed=13.5x    frame= 2015 fps=325 q=-0.0 size=N/A time=00:01:24.04 bitrate=N/A speed=13.6x    frame= 2121 fps=316 q=-0.0 size=N/A time=00:01:28.46 bitrate=N/A speed=13.2x    frame= 2280 fps=315 q=-0.0 size=N/A time=00:01:35.09 bitrate=N/A speed=13.1x    frame= 2429 fps=313 q=-0.0 size=N/A time=00:01:41.30 bitrate=N/A speed=  13x    frame= 2563 fps=310 q=-0.0 size=N/A time=00:01:46.89 bitrate=N/A speed=12.9x    frame= 2732 fps=311 q=-0.0 size=N/A time=00:01:53.94 bitrate=N/A speed=  13x    frame= 2909 fps=312 q=-0.0 size=N/A time=00:02:01.32 bitrate=N/A speed=  13x    frame= 3089 fps=314 q=-0.0 size=N/A time=00:02:08.83 bitrate=N/A speed=13.1x    frame= 3290 fps=318 q=-0.0 size=N/A time=00:02:17.22 bitrate=N/A speed=13.3x    frame= 3483 fps=321 q=-0.0 size=N/A time=00:02:25.27 bitrate=N/A speed=13.4x    frame= 3673 fps=322 q=-0.0 size=N/A time=00:02:33.19 bitrate=N/A speed=13.4x    frame= 3862 fps=324 q=-0.0 size=N/A time=00:02:41.07 bitrate=N/A speed=13.5x    frame= 4053 fps=326 q=-0.0 size=N/A time=00:02:49.04 bitrate=N/A speed=13.6x    frame= 4245 fps=328 q=-0.0 size=N/A time=00:02:57.05 bitrate=N/A speed=13.7x    frame= 4443 fps=330 q=-0.0 size=N/A time=00:03:05.31 bitrate=N/A speed=13.8x    frame= 4635 fps=332 q=-0.0 size=N/A time=00:03:13.31 bitrate=N/A speed=13.8x    frame= 4822 fps=333 q=-0.0 size=N/A time=00:03:21.11 bitrate=N/A speed=13.9x    frame= 5013 fps=334 q=-0.0 size=N/A time=00:03:29.08 bitrate=N/A speed=13.9x    frame= 5206 fps=336 q=-0.0 size=N/A time=00:03:37.13 bitrate=N/A speed=  14x    frame= 5397 fps=337 q=-0.0 size=N/A time=00:03:45.09 bitrate=N/A speed=  14x    frame= 5586 fps=338 q=-0.0 size=N/A time=00:03:52.98 bitrate=N/A speed=14.1x    frame= 5780 fps=339 q=-0.0 size=N/A time=00:04:01.07 bitrate=N/A speed=14.1x    frame= 5979 fps=340 q=-0.0 size=N/A time=00:04:09.37 bitrate=N/A speed=14.2x    frame= 6164 fps=341 q=-0.0 size=N/A time=00:04:17.09 bitrate=N/A speed=14.2x    frame= 6372 fps=342 q=-0.0 size=N/A time=00:04:25.76 bitrate=N/A speed=14.3x    frame= 6562 fps=343 q=-0.0 size=N/A time=00:04:33.69 bitrate=N/A speed=14.3x    frame= 6761 fps=344 q=-0.0 size=N/A time=00:04:41.99 bitrate=N/A speed=14.4x    frame= 6955 fps=345 q=-0.0 size=N/A time=00:04:50.08 bitrate=N/A speed=14.4x    frame= 7141 fps=345 q=-0.0 size=N/A time=00:04:57.83 bitrate=N/A speed=14.4x    frame= 7321 fps=346 q=-0.0 size=N/A time=00:05:05.34 bitrate=N/A speed=14.4x    frame= 7511 fps=346 q=-0.0 size=N/A time=00:05:13.27 bitrate=N/A speed=14.4x    frame= 7700 fps=347 q=-0.0 size=N/A time=00:05:21.15 bitrate=N/A speed=14.5x    frame= 7895 fps=347 q=-0.0 size=N/A time=00:05:29.28 bitrate=N/A speed=14.5x    frame= 8086 fps=348 q=-0.0 size=N/A time=00:05:37.25 bitrate=N/A speed=14.5x    frame= 8281 fps=349 q=-0.0 size=N/A time=00:05:45.38 bitrate=N/A speed=14.5x    frame= 8471 fps=349 q=-0.0 size=N/A time=00:05:53.31 bitrate=N/A speed=14.6x    frame= 8665 fps=350 q=-0.0 size=N/A time=00:06:01.40 bitrate=N/A speed=14.6x    frame= 8854 fps=350 q=-0.0 size=N/A time=00:06:09.28 bitrate=N/A speed=14.6x    frame= 9031 fps=350 q=-0.0 size=N/A time=00:06:16.66 bitrate=N/A speed=14.6x    frame= 9226 fps=350 q=-0.0 size=N/A time=00:06:24.80 bitrate=N/A speed=14.6x    frame= 9408 fps=350 q=-0.0 size=N/A time=00:06:32.39 bitrate=N/A speed=14.6x    frame= 9601 fps=351 q=-0.0 size=N/A time=00:06:40.44 bitrate=N/A speed=14.6x    frame= 9776 fps=351 q=-0.0 size=N/A time=00:06:47.74 bitrate=N/A speed=14.6x    frame= 9973 fps=351 q=-0.0 size=N/A time=00:06:55.95 bitrate=N/A speed=14.6x    frame=10162 fps=351 q=-0.0 size=N/A time=00:07:03.84 bitrate=N/A speed=14.7x    frame=10352 fps=352 q=-0.0 size=N/A time=00:07:11.76 bitrate=N/A speed=14.7x    frame=10542 fps=352 q=-0.0 size=N/A time=00:07:19.68 bitrate=N/A speed=14.7x    frame=10736 fps=352 q=-0.0 size=N/A time=00:07:27.78 bitrate=N/A speed=14.7x    frame=10933 fps=353 q=-0.0 size=N/A time=00:07:35.99 bitrate=N/A speed=14.7x    frame=11127 fps=353 q=-0.0 size=N/A time=00:07:44.08 bitrate=N/A speed=14.7x    frame=11319 fps=354 q=-0.0 size=N/A time=00:07:52.09 bitrate=N/A speed=14.7x    frame=11513 fps=354 q=-0.0 size=N/A time=00:08:00.18 bitrate=N/A speed=14.8x    frame=11710 fps=354 q=-0.0 size=N/A time=00:08:08.40 bitrate=N/A speed=14.8x    frame=11914 fps=355 q=-0.0 size=N/A time=00:08:16.91 bitrate=N/A speed=14.8x    frame=12109 fps=355 q=-0.0 size=N/A time=00:08:25.04 bitrate=N/A speed=14.8x    frame=12304 fps=356 q=-0.0 size=N/A time=00:08:33.17 bitrate=N/A speed=14.8x    frame=12507 fps=356 q=-0.0 size=N/A time=00:08:41.64 bitrate=N/A speed=14.9x    frame=12696 fps=356 q=-0.0 size=N/A time=00:08:49.52 bitrate=N/A speed=14.9x    frame=12889 fps=357 q=-0.0 size=N/A time=00:08:57.57 bitrate=N/A speed=14.9x    frame=13081 fps=357 q=-0.0 size=N/A time=00:09:05.58 bitrate=N/A speed=14.9x    frame=13280 fps=357 q=-0.0 size=N/A time=00:09:13.88 bitrate=N/A speed=14.9x    frame=13468 fps=357 q=-0.0 size=N/A time=00:09:21.72 bitrate=N/A speed=14.9x    frame=13661 fps=358 q=-0.0 size=N/A time=00:09:29.77 bitrate=N/A speed=14.9x    frame=13859 fps=358 q=-0.0 size=N/A time=00:09:38.03 bitrate=N/A speed=14.9x    frame=14060 fps=358 q=-0.0 size=N/A time=00:09:46.41 bitrate=N/A speed=14.9x    frame=14235 fps=358 q=-0.0 size=N/A time=00:09:53.71 bitrate=N/A speed=14.9x    frame=14431 fps=358 q=-0.0 size=N/A time=00:10:01.89 bitrate=N/A speed=14.9x    frame=14628 fps=359 q=-0.0 size=N/A time=00:10:10.10 bitrate=N/A speed=  15x    frame=14827 fps=359 q=-0.0 size=N/A time=00:10:18.40 bitrate=N/A speed=  15x    frame=15022 fps=359 q=-0.0 size=N/A time=00:10:26.54 bitrate=N/A speed=  15x    frame=15189 fps=359 q=-0.0 size=N/A time=00:10:33.50 bitrate=N/A speed=  15x    frame=15375 fps=359 q=-0.0 size=N/A time=00:10:41.26 bitrate=N/A speed=  15x    frame=15582 fps=359 q=-0.0 size=N/A time=00:10:49.89 bitrate=N/A speed=  15x    frame=15773 fps=359 q=-0.0 size=N/A time=00:10:57.86 bitrate=N/A speed=  15x    frame=15975 fps=360 q=-0.0 size=N/A time=00:11:06.29 bitrate=N/A speed=  15x    frame=16173 fps=360 q=-0.0 size=N/A time=00:11:14.54 bitrate=N/A speed=  15x    frame=16378 fps=361 q=-0.0 size=N/A time=00:11:23.09 bitrate=N/A speed=  15x    frame=16571 fps=361 q=-0.0 size=N/A time=00:11:31.14 bitrate=N/A speed=  15x    frame=16761 fps=361 q=-0.0 size=N/A time=00:11:39.07 bitrate=N/A speed=  15x    frame=16956 fps=361 q=-0.0 size=N/A time=00:11:47.20 bitrate=N/A speed=15.1x    frame=17155 fps=361 q=-0.0 size=N/A time=00:11:55.50 bitrate=N/A speed=15.1x    frame=17359 fps=362 q=-0.0 size=N/A time=00:12:04.01 bitrate=N/A speed=15.1x    frame=17551 fps=362 q=-0.0 size=N/A time=00:12:12.02 bitrate=N/A speed=15.1x    frame=17739 fps=362 q=-0.0 size=N/A time=00:12:19.86 bitrate=N/A speed=15.1x    frame=17937 fps=362 q=-0.0 size=N/A time=00:12:28.12 bitrate=N/A speed=15.1x    frame=18135 fps=362 q=-0.0 size=N/A time=00:12:36.38 bitrate=N/A speed=15.1x    frame=18322 fps=362 q=-0.0 size=N/A time=00:12:44.18 bitrate=N/A speed=15.1x    frame=18514 fps=362 q=-0.0 size=N/A time=00:12:52.18 bitrate=N/A speed=15.1x    frame=18717 fps=363 q=-0.0 size=N/A time=00:13:00.65 bitrate=N/A speed=15.1x    frame=18907 fps=363 q=-0.0 size=N/A time=00:13:08.57 bitrate=N/A speed=15.1x    frame=19106 fps=363 q=-0.0 size=N/A time=00:13:16.87 bitrate=N/A speed=15.1x    frame=19313 fps=363 q=-0.0 size=N/A time=00:13:25.51 bitrate=N/A speed=15.2x    frame=19507 fps=363 q=-0.0 size=N/A time=00:13:33.60 bitrate=N/A speed=15.2x    frame=19707 fps=364 q=-0.0 size=N/A time=00:13:41.94 bitrate=N/A speed=15.2x    frame=19913 fps=364 q=-0.0 size=N/A time=00:13:50.53 bitrate=N/A speed=15.2x    frame=20115 fps=364 q=-0.0 size=N/A time=00:13:58.96 bitrate=N/A speed=15.2x    frame=20312 fps=364 q=-0.0 size=N/A time=00:14:07.17 bitrate=N/A speed=15.2x    frame=20501 fps=364 q=-0.0 size=N/A time=00:14:15.06 bitrate=N/A speed=15.2x    frame=20685 fps=364 q=-0.0 size=N/A time=00:14:22.73 bitrate=N/A speed=15.2x    frame=20889 fps=365 q=-0.0 size=N/A time=00:14:31.24 bitrate=N/A speed=15.2x    frame=21089 fps=365 q=-0.0 size=N/A time=00:14:39.58 bitrate=N/A speed=15.2x    frame=21276 fps=365 q=-0.0 size=N/A time=00:14:47.38 bitrate=N/A speed=15.2x    frame=21470 fps=365 q=-0.0 size=N/A time=00:14:55.47 bitrate=N/A speed=15.2x    frame=21668 fps=365 q=-0.0 size=N/A time=00:15:03.73 bitrate=N/A speed=15.2x    frame=21856 fps=365 q=-0.0 size=N/A time=00:15:11.57 bitrate=N/A speed=15.2x    frame=22062 fps=365 q=-0.0 size=N/A time=00:15:20.16 bitrate=N/A speed=15.2x    frame=22256 fps=366 q=-0.0 size=N/A time=00:15:28.26 bitrate=N/A speed=15.2x    frame=22464 fps=366 q=-0.0 size=N/A time=00:15:36.93 bitrate=N/A speed=15.3x    frame=22663 fps=366 q=-0.0 size=N/A time=00:15:45.23 bitrate=N/A speed=15.3x    frame=22850 fps=366 q=-0.0 size=N/A time=00:15:53.03 bitrate=N/A speed=15.3x    frame=23048 fps=366 q=-0.0 size=N/A time=00:16:01.29 bitrate=N/A speed=15.3x    frame=23242 fps=366 q=-0.0 size=N/A time=00:16:09.38 bitrate=N/A speed=15.3x    frame=23446 fps=366 q=-0.0 size=N/A time=00:16:17.89 bitrate=N/A speed=15.3x    frame=23644 fps=366 q=-0.0 size=N/A time=00:16:26.15 bitrate=N/A speed=15.3x    frame=23836 fps=367 q=-0.0 size=N/A time=00:16:34.15 bitrate=N/A speed=15.3x    frame=24035 fps=367 q=-0.0 size=N/A time=00:16:42.45 bitrate=N/A speed=15.3x    frame=24237 fps=367 q=-0.0 size=N/A time=00:16:50.88 bitrate=N/A speed=15.3x    frame=24431 fps=367 q=-0.0 size=N/A time=00:16:58.97 bitrate=N/A speed=15.3x    frame=24623 fps=367 q=-0.0 size=N/A time=00:17:06.98 bitrate=N/A speed=15.3x    frame=24826 fps=367 q=-0.0 size=N/A time=00:17:15.45 bitrate=N/A speed=15.3x    frame=25030 fps=367 q=-0.0 size=N/A time=00:17:23.95 bitrate=N/A speed=15.3x    frame=25230 fps=367 q=-0.0 size=N/A time=00:17:32.30 bitrate=N/A speed=15.3x    frame=25413 fps=367 q=-0.0 size=N/A time=00:17:39.93 bitrate=N/A speed=15.3x    frame=25618 fps=368 q=-0.0 size=N/A time=00:17:48.48 bitrate=N/A speed=15.3x    frame=25810 fps=368 q=-0.0 size=N/A time=00:17:56.49 bitrate=N/A speed=15.3x    frame=26007 fps=368 q=-0.0 size=N/A time=00:18:04.70 bitrate=N/A speed=15.3x    frame=26202 fps=368 q=-0.0 size=N/A time=00:18:12.84 bitrate=N/A speed=15.3x    frame=26406 fps=368 q=-0.0 size=N/A time=00:18:21.35 bitrate=N/A speed=15.3x    frame=26596 fps=368 q=-0.0 size=N/A time=00:18:29.27 bitrate=N/A speed=15.3x    frame=26792 fps=368 q=-0.0 size=N/A time=00:18:37.44 bitrate=N/A speed=15.4x    frame=26976 fps=368 q=-0.0 size=N/A time=00:18:45.12 bitrate=N/A speed=15.4x    frame=27170 fps=368 q=-0.0 size=N/A time=00:18:53.21 bitrate=N/A speed=15.4x    frame=27360 fps=368 q=-0.0 size=N/A time=00:19:01.14 bitrate=N/A speed=15.4x    frame=27548 fps=368 q=-0.0 size=N/A time=00:19:08.98 bitrate=N/A speed=15.4x    frame=27738 fps=368 q=-0.0 size=N/A time=00:19:16.90 bitrate=N/A speed=15.4x    frame=27932 fps=368 q=-0.0 size=N/A time=00:19:24.99 bitrate=N/A speed=15.4x    frame=28137 fps=368 q=-0.0 size=N/A time=00:19:33.54 bitrate=N/A speed=15.4x    frame=28328 fps=368 q=-0.0 size=N/A time=00:19:41.51 bitrate=N/A speed=15.4x    frame=28524 fps=368 q=-0.0 size=N/A time=00:19:49.68 bitrate=N/A speed=15.4x    frame=28713 fps=368 q=-0.0 size=N/A time=00:19:57.57 bitrate=N/A speed=15.4x    frame=28893 fps=368 q=-0.0 size=N/A time=00:20:05.07 bitrate=N/A speed=15.4x    frame=29068 fps=368 q=-0.0 size=N/A time=00:20:12.37 bitrate=N/A speed=15.4x    frame=29258 fps=368 q=-0.0 size=N/A time=00:20:20.30 bitrate=N/A speed=15.4x    frame=29440 fps=368 q=-0.0 size=N/A time=00:20:27.89 bitrate=N/A speed=15.3x    frame=29616 fps=368 q=-0.0 size=N/A time=00:20:35.23 bitrate=N/A speed=15.3x    frame=29788 fps=368 q=-0.0 size=N/A time=00:20:42.40 bitrate=N/A speed=15.3x    frame=29977 fps=368 q=-0.0 size=N/A time=00:20:50.29 bitrate=N/A speed=15.3x    frame=30145 fps=367 q=-0.0 size=N/A time=00:20:57.29 bitrate=N/A speed=15.3x    frame=30338 fps=367 q=-0.0 size=N/A time=00:21:05.34 bitrate=N/A speed=15.3x    frame=30533 fps=367 q=-0.0 size=N/A time=00:21:13.48 bitrate=N/A speed=15.3x    frame=30738 fps=368 q=-0.0 size=N/A time=00:21:22.03 bitrate=N/A speed=15.3x    frame=30937 fps=368 q=-0.0 size=N/A time=00:21:30.33 bitrate=N/A speed=15.3x    frame=31122 fps=368 q=-0.0 size=N/A time=00:21:38.04 bitrate=N/A speed=15.3x    frame=31318 fps=368 q=-0.0 size=N/A time=00:21:46.22 bitrate=N/A speed=15.3x    frame=31505 fps=368 q=-0.0 size=N/A time=00:21:54.02 bitrate=N/A speed=15.3x    frame=31701 fps=368 q=-0.0 size=N/A time=00:22:02.19 bitrate=N/A speed=15.3x    frame=31887 fps=368 q=-0.0 size=N/A time=00:22:09.95 bitrate=N/A speed=15.3x    frame=32063 fps=368 q=-0.0 size=N/A time=00:22:17.29 bitrate=N/A speed=15.3x    frame=32256 fps=368 q=-0.0 size=N/A time=00:22:25.34 bitrate=N/A speed=15.3x    frame=32452 fps=368 q=-0.0 size=N/A time=00:22:33.51 bitrate=N/A speed=15.3x    frame=32634 fps=368 q=-0.0 size=N/A time=00:22:41.10 bitrate=N/A speed=15.3x    frame=32781 fps=367 q=-0.0 size=N/A time=00:22:47.24 bitrate=N/A speed=15.3x    frame=32946 fps=367 q=-0.0 size=N/A time=00:22:54.12 bitrate=N/A speed=15.3x    frame=33127 fps=367 q=-0.0 size=N/A time=00:23:01.67 bitrate=N/A speed=15.3x    frame=33309 fps=367 q=-0.0 size=N/A time=00:23:09.26 bitrate=N/A speed=15.3x    frame=33482 fps=367 q=-0.0 size=N/A time=00:23:16.47 bitrate=N/A speed=15.3x    frame=33639 fps=366 q=-0.0 size=N/A time=00:23:23.02 bitrate=N/A speed=15.3x    frame=33778 fps=366 q=-0.0 size=N/A time=00:23:28.82 bitrate=N/A speed=15.3x    frame=33907 fps=365 q=-0.0 size=N/A time=00:23:34.20 bitrate=N/A speed=15.2x    frame=34077 fps=365 q=-0.0 size=N/A time=00:23:41.29 bitrate=N/A speed=15.2x    frame=34248 fps=365 q=-0.0 size=N/A time=00:23:48.42 bitrate=N/A speed=15.2x    frame=34377 fps=364 q=-0.0 size=N/A time=00:23:53.80 bitrate=N/A speed=15.2x    frame=34537 fps=364 q=-0.0 size=N/A time=00:24:00.48 bitrate=N/A speed=15.2x    [Parsed_ssim_16 @ 0000022212985800] SSIM Y:0.994197 (22.363636) U:0.993992 (22.212786) V:0.993599 (21.937839) All:0.994063 (22.264628)
[out#0/null @ 000002220545e740] video:14903KiB audio:271276KiB subtitle:0KiB other streams:0KiB global headers:0KiB muxing overhead: unknown
frame=34683 fps=364 q=-0.0 Lsize=N/A time=00:24:06.57 bitrate=N/A speed=15.2x    
